<svg aria-hidden="true" style="position: absolute; width: 0; height: 0; overflow: hidden;" version="1.1" xmlns="http://www.w3.org/2000/svg" xmlns:xlink="http://www.w3.org/1999/xlink">
<defs>
<symbol id="icon-arrow" viewBox="0 0 124 32">
<path d="M120.696 15.070c0.781 0.781 0.781 2.047 0 2.828l-12.728 12.728c-0.781 0.781-2.048 0.781-2.828 0s-0.781-2.047 0-2.828l11.314-11.314-11.314-11.314c-0.781-0.781-0.781-2.047 0-2.828s2.047-0.781 2.828 0l12.728 12.728zM119.281 18.484h-116v-4h116v4z"></path>
</symbol>
<symbol id="icon-image" viewBox="0 0 39 32">
<path fill="#233176" style="fill: var(--color1, #233176)" d="M0-0.311h39.767v32.932h-39.767v-32.932z"></path>
</symbol>
<symbol id="icon-mailbox" viewBox="0 0 32 32">
<path fill="#334dcd" style="fill: var(--color2, #334dcd)" d="M5.744 28.667c-0.673 0-1.244-0.233-1.71-0.7s-0.7-1.037-0.7-1.71v-12.513c0-0.674 0.233-1.244 0.7-1.71s1.037-0.7 1.71-0.7h2.667v-7.128c0-0.344 0.115-0.63 0.345-0.86s0.517-0.345 0.86-0.345h7.256c0.344 0 0.63 0.115 0.86 0.345s0.345 0.517 0.345 0.86v2.256c0 0.344-0.115 0.63-0.345 0.86s-0.517 0.345-0.86 0.345h-6.462v10c0 0.284-0.096 0.521-0.287 0.713s-0.429 0.287-0.713 0.287-0.521-0.096-0.713-0.287c-0.191-0.191-0.287-0.429-0.287-0.713v-4.333h-2.667c-0.12 0-0.218 0.038-0.295 0.115s-0.115 0.175-0.115 0.295v12.513c0 0.12 0.038 0.218 0.115 0.295s0.175 0.115 0.295 0.115h20.513c0.12 0 0.218-0.038 0.295-0.115s0.115-0.175 0.115-0.295v-12.513c0-0.12-0.038-0.218-0.115-0.295s-0.175-0.115-0.295-0.115h-13.179v-2h13.179c0.674 0 1.244 0.233 1.71 0.7s0.7 1.037 0.7 1.71v12.513c0 0.674-0.233 1.244-0.7 1.71s-1.037 0.7-1.71 0.7h-20.513zM5.333 13.333v0z"></path>
</symbol>
<symbol id="icon-search" viewBox="0 0 32 32">
<path fill="none" stroke="#828282" style="stroke: var(--color1, #828282)" stroke-linejoin="round" stroke-linecap="round" stroke-miterlimit="4" stroke-width="2.6667" d="M14.667 25.333c5.891 0 10.667-4.776 10.667-10.667s-4.776-10.667-10.667-10.667c-5.891 0-10.667 4.776-10.667 10.667s4.776 10.667 10.667 10.667z"></path>
<path fill="none" stroke="#828282" style="stroke: var(--color1, #828282)" stroke-linejoin="round" stroke-linecap="round" stroke-miterlimit="4" stroke-width="2.6667" d="M27.998 28.001l-5.8-5.8"></path>
</symbol>
<svg id="icon-bag" xmlns="http://www.w3.org/2000/svg" width="24" height="24" viewBox="0 0 24 24" fill="none">
  <path d="M8 12L8 8C8 5.79086 9.79086 4 12 4V4C14.2091 4 16 5.79086 16 8L16 12" stroke="#33363F" stroke-width="1.5" stroke-linecap="round"/>
  <path d="M3.69435 12.6678C3.83942 10.9269 3.91196 10.0565 4.48605 9.52824C5.06013 9 5.9336 9 7.68053 9H16.3195C18.0664 9 18.9399 9 19.514 9.52824C20.088 10.0565 20.1606 10.9269 20.3057 12.6678L20.8195 18.8339C20.904 19.8474 20.9462 20.3542 20.6491 20.6771C20.352 21 19.8435 21 18.8264 21H5.1736C4.15655 21 3.64802 21 3.35092 20.6771C3.05382 20.3542 3.09605 19.8474 3.18051 18.8339L3.69435 12.6678Z" stroke="#33363F" stroke-width="1.5"/>
</svg>
<symbol id="icon-user" viewBox="0 0 32 32">
<path stroke-linejoin="miter" stroke-linecap="round" stroke-miterlimit="4" stroke-width="2" d="M21.333 9.333c0 2.946-2.388 5.333-5.333 5.333s-5.333-2.388-5.333-5.333c0-2.946 2.388-5.333 5.333-5.333s5.333 2.388 5.333 5.333z"></path>
<path stroke-linejoin="miter" stroke-linecap="round" stroke-miterlimit="4" stroke-width="2" d="M7.117 24.428c0.881-3.725 4.578-5.761 8.406-5.761h0.953c3.828 0 7.525 2.036 8.406 5.761 0.171 0.721 0.306 1.475 0.382 2.241 0.073 0.733-0.529 1.331-1.265 1.331h-16c-0.736 0-1.338-0.598-1.265-1.331 0.076-0.766 0.212-1.521 0.382-2.241z"></path>
</symbol>
<symbol id="icon-down" viewBox="0 0 31 32">
<path fill="none" stroke="#334dcd" style="stroke: var(--color1, #334dcd)" stroke-linejoin="round" stroke-linecap="round" stroke-miterlimit="4" stroke-width="2.56" d="M7.68 12.16l7.68 7.68 7.68-7.68"></path>
</symbol>
<svg id="icon-burger" xmlns="http://www.w3.org/2000/svg" width="24" height="24" viewBox="0 0 24 24" fill="none">
  <path d="M3 12H21" stroke="#33363F" stroke-width="2" stroke-linejoin="round"/>
  <path d="M3 6H21" stroke="#33363F" stroke-width="2" stroke-linejoin="round"/>
  <path d="M3 18H21" stroke="#33363F" stroke-width="2" stroke-linejoin="round"/>
</svg>
</defs>
</svg>
